<svg id="Layer_1" data-name="Layer 1" xmlns="http://www.w3.org/2000/svg" viewBox="0 0 500 135"><path d="M31.61,17.83a1,1,0,0,0-.05.39s0,.06,0,.1a2.13,2.13,0,0,0,0,.25.05.05,0,0,1,0,0,1.39,1.39,0,0,0,.06.13,1,1,0,0,0,.12.23s0,0,0,.05L65.35,64.38s0,0,0,0l.08.09a1,1,0,0,0,.19.16l.1.08.23.1.11,0a1.17,1.17,0,0,0,.74,0l.11,0,.23-.1.11-.08.18-.16.09-.09,0,0L101.12,19s0,0,0-.05a1.71,1.71,0,0,0,.13-.23s0-.09,0-.13a.05.05,0,0,1,0,0,1.07,1.07,0,0,0,0-.25.44.44,0,0,0,0-.1,1.67,1.67,0,0,0,0-.39l0-.09a1,1,0,0,0-.13-.28s0,0,0,0-.05,0-.07-.07a.71.71,0,0,0-.1-.14L85.2,1.44a1.37,1.37,0,0,0-1.32-.37L68.27,5h-3.6L49.06,1.07a1.37,1.37,0,0,0-1.32.37L32,17.21a.71.71,0,0,0-.1.14.46.46,0,0,0-.07.07s0,0,0,0a2.39,2.39,0,0,0-.13.28A.32.32,0,0,0,31.61,17.83Zm48.88,9.49L67.86,56.78V38.54ZM65.08,38.54V56.78L52.46,27.32ZM85.23,23.32l11.34-2.83L72.46,53.11Zm-37.52,0L60.48,53.11,36.37,20.49Zm49.56-5.88L84.65,20.6,71.16,7.12,83.79,4ZM67.87,7.76,82.19,22.08l-15.72,14-15.72-14L65.08,7.76ZM49.15,4,61.78,7.12,48.3,20.6,35.67,17.44Z" style="fill:#fff"/><path d="M17.94,102.17l.06,0L63.35,68.62l0,0,.09-.08a1,1,0,0,0,.16-.19l.08-.1a2.29,2.29,0,0,0,.1-.23.49.49,0,0,0,0-.11,1.17,1.17,0,0,0,0-.74.49.49,0,0,0,0-.11,2.29,2.29,0,0,0-.1-.23l-.08-.1a1,1,0,0,0-.16-.19l-.09-.08,0,0L18,32.86l-.06,0a1,1,0,0,0-.23-.12l-.13-.06,0,0a2.13,2.13,0,0,0-.25,0l-.1,0a1.27,1.27,0,0,0-.39.06.19.19,0,0,0-.08,0,1.08,1.08,0,0,0-.29.13l0,0-.07.07-.14.1L.41,48.77A1.37,1.37,0,0,0,0,50.09L3.94,65.7v3.6L0,84.91a1.37,1.37,0,0,0,.37,1.32L16.18,102l.21.17h0a1.26,1.26,0,0,0,.33.16l.08,0a1.49,1.49,0,0,0,.36,0h0a1.57,1.57,0,0,0,.37,0l0,0,.11,0A1.08,1.08,0,0,0,17.94,102.17ZM6.73,66.1,21.05,51.78,35,67.5l-14,15.72L6.73,68.9Zm30.78,2.79H55.75L26.29,81.51Zm0-2.78L26.29,53.49,55.75,66.11ZM22.29,86.26,52.08,73.49,19.46,97.6ZM52.08,61.51,22.29,48.74,19.46,37.4ZM2.93,50.18,16.41,36.7l3.16,12.62L6.09,62.81Zm3.16,22L19.57,85.68,16.41,98.3,2.93,84.82Z" style="fill:#fff"/><path d="M101.34,117.17a1.67,1.67,0,0,0,0-.39.44.44,0,0,0,0-.1,1.07,1.07,0,0,0,0-.25.05.05,0,0,1,0,0s0-.08,0-.13a1.71,1.71,0,0,0-.13-.23s0,0,0,0L67.59,70.62l0,0-.09-.09a1.29,1.29,0,0,0-.18-.16l-.11-.08-.23-.1-.11,0a1.17,1.17,0,0,0-.74,0l-.11,0-.23.1-.1.08a1,1,0,0,0-.19.16l-.08.09s0,0,0,0L31.83,116s0,0,0,0a1,1,0,0,0-.12.23,1.39,1.39,0,0,0-.06.13.05.05,0,0,1,0,0,2.13,2.13,0,0,0,0,.25s0,.07,0,.1a1,1,0,0,0,.05.39.32.32,0,0,0,0,.09,2.39,2.39,0,0,0,.13.28s0,0,0,0a.46.46,0,0,0,.07.07.71.71,0,0,0,.1.14l15.78,15.77a1.38,1.38,0,0,0,1.32.37L64.67,130h3.6l15.61,3.9a1.32,1.32,0,0,0,.34,0,1.36,1.36,0,0,0,1-.41L101,117.79a.61.61,0,0,0,.07-.1l.1-.11s0,0,0,0a1,1,0,0,0,.13-.28ZM65.08,96.46l-10.83,9.62-1.79,1.6L65.08,78.22Zm13.67,9.68L67.86,96.46V78.22l12.63,29.46Zm-31,5.54-11.34,2.83L60.48,81.89Zm37.52,0L72.46,81.89l24.11,32.62Zm-49.56,5.88L48.3,114.4l13.48,13.48L49.15,131Zm29.41,9.68L50.75,112.92l15.72-14,15.72,14L67.87,127.24ZM83.79,131l-12.63-3.16L84.65,114.4l12.62,3.16Z" style="fill:#fff"/><path d="M129,69.3V65.7l3.9-15.61a1.37,1.37,0,0,0-.37-1.32L116.76,33a.71.71,0,0,0-.14-.1l-.07-.07,0,0a1.17,1.17,0,0,0-.28-.13l-.09,0a1,1,0,0,0-.39,0h-.09l-.26,0,0,0-.13.06a1,1,0,0,0-.23.12s0,0,0,0L69.59,66.38a.08.08,0,0,0,0,0l-.09.08a1.46,1.46,0,0,0-.16.19.61.61,0,0,0-.07.1,1.2,1.2,0,0,0-.11.23.49.49,0,0,0,0,.11,1.17,1.17,0,0,0,0,.74.49.49,0,0,0,0,.11,1.2,1.2,0,0,0,.11.23.61.61,0,0,0,.07.1,1.46,1.46,0,0,0,.16.19l.09.08a.08.08,0,0,0,0,0L115,102.14s0,0,0,0a.91.91,0,0,0,.26.13l.11,0,0,0a1.57,1.57,0,0,0,.37,0h0a1.49,1.49,0,0,0,.36,0l.08,0a1.5,1.5,0,0,0,.34-.16h0l.21-.17,15.77-15.78a1.37,1.37,0,0,0,.37-1.32Zm-2.15-6.49L113.37,49.32l3.16-12.62L130,50.18Zm-31.42,3.3H77.19l29.46-12.62Zm0,2.78,11.22,12.62L77.19,68.89Zm16.46,14.33-14-15.72,14-15.72L126.21,66.1v2.8Zm-1.24-34.48L80.86,61.51,113.48,37.4ZM80.86,73.49l29.79,12.77,2.83,11.34ZM116.53,98.3l-3.16-12.62,13.48-13.49L130,84.82Z" style="fill:#fff"/><path d="M208.43,52.89l6.63,3.7a22.23,22.23,0,0,1-9,13.17,26.88,26.88,0,0,1-15.63,4.68q-11.58,0-18.58-7.52a26.22,26.22,0,0,1-7-18.57q0-12.14,7-19.31t18.36-7.18q10,0,16.81,5.46V22.66h6.6V39H207a16.47,16.47,0,0,0-6.77-7.71,18.57,18.57,0,0,0-9.64-2.73,16,16,0,0,0-12.51,5.49A20.14,20.14,0,0,0,173.22,48q0,8.61,5.24,14.07a16.63,16.63,0,0,0,12.42,5.46,17,17,0,0,0,10.73-3.79A20.21,20.21,0,0,0,208.43,52.89Z" style="fill:#fff"/><path d="M227.06,67.25V29h-6.6V22.66h20.85V29H235V67.25h15.61V49.92h7.18V73.63H220.46V67.25Z" style="fill:#fff"/><path d="M263,47.91a25.62,25.62,0,0,1,7.26-18.58q7.25-7.47,18.9-7.47t19.16,7.47a25.52,25.52,0,0,1,7.41,18.72q0,11.48-7.53,18.93T289,74.44a27,27,0,0,1-13.61-3.54A22.58,22.58,0,0,1,266.1,61,29.3,29.3,0,0,1,263,47.91Zm8.39,0A20.75,20.75,0,0,0,276.28,62a16.21,16.21,0,0,0,12.9,5.68,16.55,16.55,0,0,0,13-5.8A20.38,20.38,0,0,0,307.28,48a19.55,19.55,0,0,0-5.19-13.76,16.94,16.94,0,0,0-13-5.62,16.32,16.32,0,0,0-12.75,5.53A19.9,19.9,0,0,0,271.37,47.94Z" style="fill:#fff"/><path d="M338.2,74.14,321.08,29h-6.31V22.66h20.12V29H329l13,34.22L354.61,29h-5.95V22.66h19.57V29H362l-16.77,45.1Z" style="fill:#fff"/><path d="M377.44,67.25V29h-6.59V22.66H413.2V38h-6.3V29H385.14V44.21h18.94v6.37H385.14V67.25H406.9V58h6.3V73.63H370.85V67.25Z" style="fill:#fff"/><path d="M424.39,67.25V29h-7V22.66h20.7a41.9,41.9,0,0,1,10.29,1,11.53,11.53,0,0,1,6.31,4.25A12.88,12.88,0,0,1,457.19,36q0,10.11-10.51,12.71l9,18.54h6.23v6.38h-11l-11.6-23.82h-7.18V67.25h6.52v6.38H417.4V67.25Zm7.7-23.81h6a26.39,26.39,0,0,0,6.43-.57,6.23,6.23,0,0,0,3.39-2.31,7.55,7.55,0,0,0,1.32-4.67,6.65,6.65,0,0,0-1.34-4.21,5.72,5.72,0,0,0-3.3-2.18,28.26,28.26,0,0,0-6-.46h-6.52Z" style="fill:#fff"/><path d="M465.12,73.63V55.13h6.37v4.5q4.59,8.33,12,8.32a9.25,9.25,0,0,0,6.37-2.31,7.67,7.67,0,0,0,2.6-6q0-3.63-2.12-5.23c-1.42-1.06-4.09-2.11-8-3.16a59.37,59.37,0,0,1-10.15-3.47,13,13,0,0,1-5.25-4.65,12.85,12.85,0,0,1-2-7.16,13.08,13.08,0,0,1,4.26-10.24,15.43,15.43,0,0,1,10.72-3.83,18.5,18.5,0,0,1,11.36,3.95v-3.4h6.23V37.87h-6.23V34.31a12.31,12.31,0,0,0-10.81-5.89,9.57,9.57,0,0,0-6.41,1.92,5.87,5.87,0,0,0-2.24,4.6A6,6,0,0,0,473,38.55a6.81,6.81,0,0,0,2.89,2.29,62.24,62.24,0,0,0,6.93,2,54.12,54.12,0,0,1,9.78,3.28,13.15,13.15,0,0,1,5.24,5.08,15.17,15.17,0,0,1,2.2,8.17,14,14,0,0,1-4.6,10.77A16.1,16.1,0,0,1,484,74.44a18.29,18.29,0,0,1-12.54-5v4.21Z" style="fill:#fff"/><path d="M182.72,92a1.53,1.53,0,0,0-.95.32,1.62,1.62,0,0,0-.51.71l-6.19,15.09L168.86,93a1.73,1.73,0,0,0-.47-.65,1.5,1.5,0,0,0-1-.34h-2.6l.56,1.37,8.13,19.7.25.61h2.59l.26-.61,8.13-19.7.56-1.37h-2.59Z" style="fill:#fff"/><polygon points="217.37 110.51 217.37 104.27 225.01 104.27 226 104.27 226 103.28 226 102.13 226 101.14 225.01 101.14 217.37 101.14 217.37 95.15 226.75 95.15 227.74 95.15 227.74 94.16 227.74 92.98 227.74 91.99 226.75 91.99 214.94 91.99 213.95 91.99 213.95 92.98 213.95 112.68 213.95 113.67 214.94 113.67 226.75 113.67 227.72 113.67 227.74 112.7 227.76 111.52 227.79 110.51 226.78 110.51 217.37 110.51" style="fill:#fff"/><path d="M272.89,92h-1v15.28L261,92.65a1.69,1.69,0,0,0-.6-.52,1.74,1.74,0,0,0-.72-.14h-1.7v21.68h3.23V98.34l11,14.65a1.71,1.71,0,0,0,.57.51,1.57,1.57,0,0,0,.75.17h1.66V92h-2.23Z" style="fill:#fff"/><polygon points="305.29 91.99 304.3 91.99 304.3 92.98 304.3 94.19 304.3 95.18 305.29 95.18 311.25 95.18 311.25 112.68 311.25 113.67 312.25 113.67 313.68 113.67 314.67 113.67 314.67 112.68 314.67 95.18 320.6 95.18 321.59 95.18 321.59 94.19 321.59 92.98 321.59 91.99 320.6 91.99 305.29 91.99" style="fill:#fff"/><path d="M365,92h-1v13.17a6.81,6.81,0,0,1-.36,2.25,5.08,5.08,0,0,1-1,1.73,4.42,4.42,0,0,1-1.56,1.12,5.79,5.79,0,0,1-4.28,0,4.67,4.67,0,0,1-1.55-1.13,5.18,5.18,0,0,1-1-1.73,6.89,6.89,0,0,1-.36-2.25V92h-3.41v13.17a9.83,9.83,0,0,0,.57,3.38,8.26,8.26,0,0,0,1.69,2.8,7.88,7.88,0,0,0,2.69,1.89,9.48,9.48,0,0,0,7,0,7.88,7.88,0,0,0,2.69-1.89,8.26,8.26,0,0,0,1.69-2.8,9.87,9.87,0,0,0,.57-3.38V92H365Z" style="fill:#fff"/><path d="M408,104.21a5.6,5.6,0,0,0,.81-.3,6.9,6.9,0,0,0,2.07-1.34,5.89,5.89,0,0,0,1.34-2,6.24,6.24,0,0,0,.47-2.44,5.55,5.55,0,0,0-2.07-4.64,9,9,0,0,0-5.7-1.53h-6v21.68h3.41v-8.91h1.59l.36,0,.1,0a.22.22,0,0,0,.07.1v0l0,0,6.3,8a1.62,1.62,0,0,0,.68.6,1.83,1.83,0,0,0,.81.17h3.28l-1.28-1.61Zm1-4.53a2.89,2.89,0,0,1-.82,1,4,4,0,0,1-1.42.72,7.1,7.1,0,0,1-2.06.27h-2.42V95.1h2.62a5.78,5.78,0,0,1,3.41.82,2.65,2.65,0,0,1,1,2.32A3.43,3.43,0,0,1,409,99.68Z" style="fill:#fff"/><polygon points="446.99 110.51 446.99 104.27 454.63 104.27 455.62 104.27 455.62 103.28 455.62 102.13 455.62 101.14 454.63 101.14 446.99 101.14 446.99 95.15 456.37 95.15 457.36 95.15 457.36 94.16 457.36 92.98 457.36 91.99 456.37 91.99 444.57 91.99 443.58 91.99 443.58 92.98 443.58 112.68 443.58 113.67 444.57 113.67 456.37 113.67 457.34 113.67 457.36 112.7 457.39 111.52 457.41 110.51 456.4 110.51 446.99 110.51" style="fill:#fff"/><path d="M499.46,104.45a5.16,5.16,0,0,0-1.38-1.69,7.78,7.78,0,0,0-1.81-1.07c-.6-.25-1.23-.48-1.89-.7s-1.21-.4-1.8-.61a6.15,6.15,0,0,1-1.36-.67,2.74,2.74,0,0,1-.84-.82,2.11,2.11,0,0,1-.26-1.12,2.81,2.81,0,0,1,.21-1.08,2.57,2.57,0,0,1,.61-.89,2.79,2.79,0,0,1,1-.62,4.21,4.21,0,0,1,1.54-.25,4.26,4.26,0,0,1,1.46.21,4.89,4.89,0,0,1,1,.48,4.62,4.62,0,0,1,.65.47,1.7,1.7,0,0,0,1.13.51,1.36,1.36,0,0,0,1.23-.76l.34-.65.33-.64-.51-.51a7.39,7.39,0,0,0-2.55-1.71,8.41,8.41,0,0,0-3.12-.56,7.66,7.66,0,0,0-2.79.49,6.3,6.3,0,0,0-2.11,1.34,5.68,5.68,0,0,0-1.33,2,5.91,5.91,0,0,0-.45,2.28,5.7,5.7,0,0,0,.53,2.56,5.17,5.17,0,0,0,1.38,1.72,7.42,7.42,0,0,0,1.83,1.08c.6.24,1.24.47,1.9.68s1.21.39,1.78.59a6.45,6.45,0,0,1,1.37.65,2.82,2.82,0,0,1,.82.83,2.23,2.23,0,0,1,.27,1.19,4,4,0,0,1-.26,1.44,3,3,0,0,1-.74,1.1,3.47,3.47,0,0,1-1.22.76,4.78,4.78,0,0,1-1.73.29,5.3,5.3,0,0,1-1.27-.14,6.26,6.26,0,0,1-1-.34,5,5,0,0,1-.74-.44c-.23-.17-.43-.33-.6-.47l-.19-.17-.3-.25a1.44,1.44,0,0,0-.95-.41,1.5,1.5,0,0,0-1.17.58l0,0,0,0-.39.62-.4.63.49.55a9.06,9.06,0,0,0,2.77,2.12,8.5,8.5,0,0,0,3.79.79,8.13,8.13,0,0,0,3.05-.54,6.81,6.81,0,0,0,2.31-1.49,6.37,6.37,0,0,0,1.45-2.24,7.51,7.51,0,0,0,.49-2.69A5.25,5.25,0,0,0,499.46,104.45Z" style="fill:#fff"/></svg>